# xmcd
#
# Track frame offsets:
#  150
#  9775
#  26573
#  36485
#  47202
#  58220
#  68600
#  81738
#  94400
#  104335
#  113755
#  124003
#  134695
#  143565
#
# Disc length: 2065 seconds
#
# Revision: 0
# Processed by: cddbd v1.5.1PL2 Copyright (c) Steve Scherf et al.
# Submitted via: Collectorz.com_Music_Collector 6.10
#
DISCID=c8080f0e
DTITLE=Various Artist - Spotlite On Josie Records Vol. 3
DYEAR=1994
DGENRE=Doo Wop - Oldies - R&B - Rock and Roll
TTITLE0=The Chips - Rubber Biscuit
TTITLE1=The Ravens - Same Sweet Wonderful One
TTITLE2=The Cadillacs - From This Day On (unreleased)
TTITLE3=The Dubs - This I Swear
TTITLE4=The Chaperones - Shining Star
TTITLE5=The Cadillacs - Speedo Is Back
TTITLE6=The Teardrops - A Prayer (unreleased)
TTITLE7=The Starlings - Music Maestro Please
TTITLE8=The Bluenotes - If It's Our Destiny (unreleased)
TTITLE9=The Cadillacs - Lucy
TTITLE10=The Emanons - Blue Moon
TTITLE11=The 4 Bars - Grief By Day Grief By Night
TTITLE12=The Clicks - Come Back To Me
TTITLE13=The Cadillacs - Speedo (outtake)
EXTD=
EXTT0=
EXTT1=
EXTT2=
EXTT3=
EXTT4=
EXTT5=
EXTT6=
EXTT7=
EXTT8=
EXTT9=
EXTT10=
EXTT11=
EXTT12=
EXTT13=
PLAYORDER=
